<?xml version="1.0" encoding="UTF-8"?>
<svg xmlns="http://www.w3.org/2000/svg" xmlns:xlink="http://www.w3.org/1999/xlink" width="150pt" height="171pt" viewBox="0 0 150 171" version="1.1">
<g id="surface1">
<path style=" stroke:none;fill-rule:nonzero;fill:rgb(0%,0%,0%);fill-opacity:1;" d="M 0 48.101562 L 0 36.414062 C 0.222656 32.183594 1.898438 28.621094 5.023438 25.726562 C 8.148438 22.832031 11.828125 21.382812 16.070312 21.382812 L 32.140625 21.382812 L 32.140625 16.042969 C 32.140625 11.589844 33.703125 7.804688 36.828125 4.6875 C 39.953125 1.570312 43.746094 0.0117188 48.210938 0.0117188 L 101.777344 0.0117188 C 106.242188 0.0117188 110.039062 1.570312 113.164062 4.6875 C 116.289062 7.804688 117.847656 11.589844 117.847656 16.042969 L 117.847656 21.382812 L 133.921875 21.382812 C 138.160156 21.382812 141.84375 22.832031 144.96875 25.726562 C 148.09375 28.621094 149.765625 32.183594 149.992188 36.414062 L 149.992188 48.101562 C 149.992188 50.996094 148.929688 53.5 146.808594 55.617188 C 144.691406 57.730469 142.179688 58.789062 139.277344 58.789062 L 139.277344 149.625 C 139.277344 155.636719 137.210938 160.703125 133.082031 164.820312 C 128.953125 168.941406 123.875 171 117.847656 171 L 32.140625 171 C 26.113281 171 21.035156 168.941406 16.90625 164.820312 C 12.777344 160.703125 10.714844 155.636719 10.714844 149.625 L 10.714844 58.789062 C 7.8125 58.789062 5.300781 57.730469 3.179688 55.617188 C 1.058594 53.5 0 50.996094 0 48.101562 Z M 10.714844 48.101562 L 139.277344 48.101562 L 139.277344 37.414062 C 139.277344 35.855469 138.773438 34.574219 137.769531 33.574219 C 136.765625 32.570312 135.480469 32.070312 133.917969 32.070312 L 16.070312 32.070312 C 14.507812 32.070312 13.222656 32.570312 12.21875 33.574219 C 11.214844 34.574219 10.714844 35.855469 10.714844 37.414062 Z M 21.425781 149.625 C 21.425781 152.519531 22.488281 155.027344 24.609375 157.140625 C 26.726562 159.253906 29.238281 160.3125 32.140625 160.3125 L 117.847656 160.3125 C 120.75 160.3125 123.261719 159.253906 125.382812 157.140625 C 127.503906 155.027344 128.5625 152.519531 128.5625 149.625 L 128.5625 58.789062 L 21.425781 58.789062 Z M 32.140625 144.28125 L 32.140625 74.820312 C 32.140625 73.261719 32.644531 71.980469 33.648438 70.976562 C 34.652344 69.976562 35.933594 69.476562 37.496094 69.476562 L 48.210938 69.476562 C 49.773438 69.476562 51.058594 69.976562 52.0625 70.976562 C 53.066406 71.980469 53.566406 73.261719 53.566406 74.820312 L 53.566406 144.28125 C 53.566406 145.839844 53.066406 147.121094 52.0625 148.125 C 51.058594 149.125 49.773438 149.625 48.210938 149.625 L 37.496094 149.625 C 35.933594 149.625 34.652344 149.125 33.648438 148.125 C 32.644531 147.121094 32.140625 145.839844 32.140625 144.28125 Z M 37.496094 144.28125 L 48.210938 144.28125 L 48.210938 74.820312 L 37.496094 74.820312 Z M 42.855469 21.382812 L 107.136719 21.382812 L 107.136719 16.042969 C 107.136719 14.484375 106.632812 13.203125 105.628906 12.199219 C 104.625 11.199219 103.339844 10.699219 101.777344 10.699219 L 48.210938 10.699219 C 46.648438 10.699219 45.363281 11.199219 44.359375 12.199219 C 43.355469 13.203125 42.855469 14.484375 42.855469 16.042969 Z M 64.28125 144.28125 L 64.28125 74.820312 C 64.28125 73.261719 64.785156 71.980469 65.789062 70.976562 C 66.792969 69.976562 68.074219 69.476562 69.636719 69.476562 L 80.351562 69.476562 C 81.914062 69.476562 83.199219 69.976562 84.203125 70.976562 C 85.207031 71.980469 85.710938 73.261719 85.710938 74.820312 L 85.710938 144.28125 C 85.710938 145.839844 85.207031 147.121094 84.203125 148.125 C 83.199219 149.125 81.914062 149.625 80.351562 149.625 L 69.636719 149.625 C 68.074219 149.625 66.792969 149.125 65.789062 148.125 C 64.785156 147.121094 64.28125 145.839844 64.28125 144.28125 Z M 69.636719 144.28125 L 80.351562 144.28125 L 80.351562 74.820312 L 69.636719 74.820312 Z M 96.421875 144.28125 L 96.421875 74.820312 C 96.421875 73.261719 96.925781 71.980469 97.929688 70.976562 C 98.933594 69.976562 100.21875 69.476562 101.78125 69.476562 L 112.492188 69.476562 C 114.054688 69.476562 115.339844 69.976562 116.34375 70.976562 C 117.347656 71.980469 117.851562 73.261719 117.851562 74.820312 L 117.851562 144.28125 C 117.851562 145.839844 117.347656 147.121094 116.34375 148.125 C 115.339844 149.125 114.054688 149.625 112.492188 149.625 L 101.78125 149.625 C 100.21875 149.625 98.933594 149.125 97.929688 148.125 C 96.925781 147.121094 96.421875 145.839844 96.421875 144.28125 Z M 101.777344 144.28125 L 112.492188 144.28125 L 112.492188 74.820312 L 101.777344 74.820312 Z M 101.777344 144.28125 "/>
</g>
</svg>
